<mxfile host="app.diagrams.net" modified="2022-06-13T19:03:58.224Z" agent="5.0 (Windows NT 10.0; Win64; x64) AppleWebKit/537.36 (KHTML, like Gecko) Chrome/102.0.5005.99 Safari/537.36" etag="_IkUAPVDlMLJUyvsQLC7" version="20.0.1" type="github">
  <diagram id="6a731a19-8d31-9384-78a2-239565b7b9f0" name="Page-1">
    <mxGraphModel dx="1153" dy="621" grid="1" gridSize="10" guides="1" tooltips="1" connect="1" arrows="1" fold="1" page="1" pageScale="1" pageWidth="1169" pageHeight="827" background="none" math="0" shadow="0">
      <root>
        <mxCell id="0" />
        <mxCell id="1" parent="0" />
        <mxCell id="OVpTipQ50RO1qhXe0CmH-84" style="edgeStyle=orthogonalEdgeStyle;rounded=0;orthogonalLoop=1;jettySize=auto;html=1;" edge="1" parent="1" source="OVpTipQ50RO1qhXe0CmH-55" target="OVpTipQ50RO1qhXe0CmH-56">
          <mxGeometry relative="1" as="geometry">
            <Array as="points">
              <mxPoint x="305" y="360" />
              <mxPoint x="305" y="360" />
            </Array>
          </mxGeometry>
        </mxCell>
        <mxCell id="OVpTipQ50RO1qhXe0CmH-55" value="START" style="strokeWidth=2;html=1;shape=mxgraph.flowchart.start_1;whiteSpace=wrap;" vertex="1" parent="1">
          <mxGeometry x="255" y="270" width="100" height="60" as="geometry" />
        </mxCell>
        <mxCell id="OVpTipQ50RO1qhXe0CmH-59" value="" style="edgeStyle=orthogonalEdgeStyle;rounded=0;orthogonalLoop=1;jettySize=auto;html=1;" edge="1" parent="1" source="OVpTipQ50RO1qhXe0CmH-56" target="OVpTipQ50RO1qhXe0CmH-58">
          <mxGeometry relative="1" as="geometry" />
        </mxCell>
        <mxCell id="OVpTipQ50RO1qhXe0CmH-56" value="Input the first&amp;nbsp;&lt;br&gt;two numbers" style="shape=parallelogram;html=1;strokeWidth=2;perimeter=parallelogramPerimeter;whiteSpace=wrap;rounded=1;arcSize=12;size=0.23;" vertex="1" parent="1">
          <mxGeometry x="245" y="400" width="120" height="90" as="geometry" />
        </mxCell>
        <mxCell id="OVpTipQ50RO1qhXe0CmH-61" value="" style="edgeStyle=orthogonalEdgeStyle;rounded=0;orthogonalLoop=1;jettySize=auto;html=1;" edge="1" parent="1" source="OVpTipQ50RO1qhXe0CmH-58" target="OVpTipQ50RO1qhXe0CmH-60">
          <mxGeometry relative="1" as="geometry" />
        </mxCell>
        <mxCell id="OVpTipQ50RO1qhXe0CmH-58" value="Compare the two numbers" style="whiteSpace=wrap;html=1;strokeWidth=2;rounded=1;arcSize=12;" vertex="1" parent="1">
          <mxGeometry x="235" y="540" width="120" height="60" as="geometry" />
        </mxCell>
        <mxCell id="OVpTipQ50RO1qhXe0CmH-63" value="" style="edgeStyle=orthogonalEdgeStyle;rounded=0;orthogonalLoop=1;jettySize=auto;html=1;" edge="1" parent="1" source="OVpTipQ50RO1qhXe0CmH-60">
          <mxGeometry relative="1" as="geometry">
            <mxPoint x="575" y="710" as="targetPoint" />
          </mxGeometry>
        </mxCell>
        <mxCell id="OVpTipQ50RO1qhXe0CmH-66" value="" style="edgeStyle=orthogonalEdgeStyle;rounded=0;orthogonalLoop=1;jettySize=auto;html=1;" edge="1" parent="1" source="OVpTipQ50RO1qhXe0CmH-60">
          <mxGeometry relative="1" as="geometry">
            <mxPoint x="825" y="570" as="targetPoint" />
          </mxGeometry>
        </mxCell>
        <mxCell id="OVpTipQ50RO1qhXe0CmH-60" value="Is the first number greater&lt;br&gt;than the second one?" style="rhombus;whiteSpace=wrap;html=1;strokeWidth=2;rounded=1;arcSize=12;" vertex="1" parent="1">
          <mxGeometry x="465" y="485" width="220" height="170" as="geometry" />
        </mxCell>
        <mxCell id="OVpTipQ50RO1qhXe0CmH-73" style="edgeStyle=orthogonalEdgeStyle;rounded=0;orthogonalLoop=1;jettySize=auto;html=1;" edge="1" parent="1" source="OVpTipQ50RO1qhXe0CmH-69" target="OVpTipQ50RO1qhXe0CmH-71">
          <mxGeometry relative="1" as="geometry">
            <Array as="points">
              <mxPoint x="575" y="790" />
              <mxPoint x="575" y="790" />
            </Array>
          </mxGeometry>
        </mxCell>
        <mxCell id="OVpTipQ50RO1qhXe0CmH-69" value="Save in the correct order&amp;nbsp;&lt;br&gt;on list" style="strokeWidth=2;html=1;shape=mxgraph.flowchart.stored_data;whiteSpace=wrap;" vertex="1" parent="1">
          <mxGeometry x="515" y="710" width="100" height="60" as="geometry" />
        </mxCell>
        <mxCell id="OVpTipQ50RO1qhXe0CmH-72" style="edgeStyle=orthogonalEdgeStyle;rounded=0;orthogonalLoop=1;jettySize=auto;html=1;entryX=1;entryY=0.5;entryDx=0;entryDy=0;entryPerimeter=0;" edge="1" parent="1" source="OVpTipQ50RO1qhXe0CmH-70" target="OVpTipQ50RO1qhXe0CmH-71">
          <mxGeometry relative="1" as="geometry">
            <Array as="points">
              <mxPoint x="885" y="845" />
            </Array>
          </mxGeometry>
        </mxCell>
        <mxCell id="OVpTipQ50RO1qhXe0CmH-70" value="save in correct order&amp;nbsp;" style="strokeWidth=2;html=1;shape=mxgraph.flowchart.stored_data;whiteSpace=wrap;" vertex="1" parent="1">
          <mxGeometry x="825" y="540" width="100" height="60" as="geometry" />
        </mxCell>
        <mxCell id="OVpTipQ50RO1qhXe0CmH-75" value="" style="edgeStyle=orthogonalEdgeStyle;rounded=0;orthogonalLoop=1;jettySize=auto;html=1;" edge="1" parent="1" source="OVpTipQ50RO1qhXe0CmH-71" target="OVpTipQ50RO1qhXe0CmH-74">
          <mxGeometry relative="1" as="geometry" />
        </mxCell>
        <mxCell id="OVpTipQ50RO1qhXe0CmH-71" value="" style="verticalLabelPosition=bottom;verticalAlign=top;html=1;shape=mxgraph.flowchart.on-page_reference;" vertex="1" parent="1">
          <mxGeometry x="560" y="830" width="30" height="30" as="geometry" />
        </mxCell>
        <mxCell id="OVpTipQ50RO1qhXe0CmH-77" value="" style="edgeStyle=orthogonalEdgeStyle;rounded=0;orthogonalLoop=1;jettySize=auto;html=1;" edge="1" parent="1" source="OVpTipQ50RO1qhXe0CmH-74" target="OVpTipQ50RO1qhXe0CmH-76">
          <mxGeometry relative="1" as="geometry" />
        </mxCell>
        <mxCell id="OVpTipQ50RO1qhXe0CmH-74" value="Input the final &lt;br&gt;number" style="shape=parallelogram;perimeter=parallelogramPerimeter;whiteSpace=wrap;html=1;fixedSize=1;verticalAlign=top;" vertex="1" parent="1">
          <mxGeometry x="225" y="815" width="120" height="60" as="geometry" />
        </mxCell>
        <mxCell id="OVpTipQ50RO1qhXe0CmH-79" value="" style="edgeStyle=orthogonalEdgeStyle;rounded=0;orthogonalLoop=1;jettySize=auto;html=1;" edge="1" parent="1" source="OVpTipQ50RO1qhXe0CmH-76" target="OVpTipQ50RO1qhXe0CmH-78">
          <mxGeometry relative="1" as="geometry" />
        </mxCell>
        <mxCell id="OVpTipQ50RO1qhXe0CmH-76" value="Compare with the largest number in the list" style="whiteSpace=wrap;html=1;verticalAlign=top;" vertex="1" parent="1">
          <mxGeometry x="225" y="955" width="120" height="60" as="geometry" />
        </mxCell>
        <mxCell id="OVpTipQ50RO1qhXe0CmH-81" value="" style="edgeStyle=orthogonalEdgeStyle;rounded=0;orthogonalLoop=1;jettySize=auto;html=1;entryX=0.441;entryY=-0.034;entryDx=0;entryDy=0;entryPerimeter=0;" edge="1" parent="1" source="OVpTipQ50RO1qhXe0CmH-78" target="OVpTipQ50RO1qhXe0CmH-85">
          <mxGeometry relative="1" as="geometry">
            <mxPoint x="285" y="1245" as="targetPoint" />
          </mxGeometry>
        </mxCell>
        <mxCell id="OVpTipQ50RO1qhXe0CmH-83" value="" style="edgeStyle=orthogonalEdgeStyle;rounded=0;orthogonalLoop=1;jettySize=auto;html=1;" edge="1" parent="1" source="OVpTipQ50RO1qhXe0CmH-78" target="OVpTipQ50RO1qhXe0CmH-82">
          <mxGeometry relative="1" as="geometry" />
        </mxCell>
        <mxCell id="OVpTipQ50RO1qhXe0CmH-78" value="is&lt;br&gt;it larger&lt;br&gt;than the&amp;nbsp;&lt;br&gt;largest number?" style="rhombus;whiteSpace=wrap;html=1;verticalAlign=top;" vertex="1" parent="1">
          <mxGeometry x="220" y="1062.5" width="130" height="125" as="geometry" />
        </mxCell>
        <mxCell id="OVpTipQ50RO1qhXe0CmH-87" style="edgeStyle=orthogonalEdgeStyle;rounded=0;orthogonalLoop=1;jettySize=auto;html=1;exitX=0.5;exitY=1;exitDx=0;exitDy=0;entryX=0.5;entryY=0;entryDx=0;entryDy=0;entryPerimeter=0;" edge="1" parent="1" source="OVpTipQ50RO1qhXe0CmH-82" target="OVpTipQ50RO1qhXe0CmH-86">
          <mxGeometry relative="1" as="geometry" />
        </mxCell>
        <mxCell id="OVpTipQ50RO1qhXe0CmH-89" style="edgeStyle=orthogonalEdgeStyle;rounded=0;orthogonalLoop=1;jettySize=auto;html=1;entryX=0;entryY=0.5;entryDx=0;entryDy=0;entryPerimeter=0;" edge="1" parent="1" source="OVpTipQ50RO1qhXe0CmH-82" target="OVpTipQ50RO1qhXe0CmH-88">
          <mxGeometry relative="1" as="geometry" />
        </mxCell>
        <mxCell id="OVpTipQ50RO1qhXe0CmH-82" value="&lt;br&gt;&lt;br&gt;&lt;br&gt;Compared&lt;br&gt;to the smaller &lt;br&gt;number. Is it smaller?" style="rhombus;whiteSpace=wrap;html=1;verticalAlign=top;" vertex="1" parent="1">
          <mxGeometry x="405" y="1042.5" width="220" height="165" as="geometry" />
        </mxCell>
        <mxCell id="OVpTipQ50RO1qhXe0CmH-91" style="edgeStyle=orthogonalEdgeStyle;rounded=0;orthogonalLoop=1;jettySize=auto;html=1;entryX=0.5;entryY=0;entryDx=0;entryDy=0;entryPerimeter=0;" edge="1" parent="1" source="OVpTipQ50RO1qhXe0CmH-85" target="OVpTipQ50RO1qhXe0CmH-90">
          <mxGeometry relative="1" as="geometry" />
        </mxCell>
        <mxCell id="OVpTipQ50RO1qhXe0CmH-85" value="Append it to &lt;br&gt;the beginning&lt;br&gt;&amp;nbsp;of the list as the&lt;br&gt;&amp;nbsp;largest number" style="strokeWidth=2;html=1;shape=mxgraph.flowchart.stored_data;whiteSpace=wrap;" vertex="1" parent="1">
          <mxGeometry x="210" y="1250" width="170" height="100" as="geometry" />
        </mxCell>
        <mxCell id="OVpTipQ50RO1qhXe0CmH-92" style="edgeStyle=orthogonalEdgeStyle;rounded=0;orthogonalLoop=1;jettySize=auto;html=1;entryX=1;entryY=0.5;entryDx=0;entryDy=0;entryPerimeter=0;" edge="1" parent="1" source="OVpTipQ50RO1qhXe0CmH-86" target="OVpTipQ50RO1qhXe0CmH-90">
          <mxGeometry relative="1" as="geometry">
            <Array as="points">
              <mxPoint x="475" y="1495" />
            </Array>
          </mxGeometry>
        </mxCell>
        <mxCell id="OVpTipQ50RO1qhXe0CmH-86" value="Append it to the end of the&amp;nbsp;&lt;br&gt;list as the smallest&lt;br&gt;number" style="strokeWidth=2;html=1;shape=mxgraph.flowchart.stored_data;whiteSpace=wrap;" vertex="1" parent="1">
          <mxGeometry x="445" y="1250" width="170" height="100" as="geometry" />
        </mxCell>
        <mxCell id="OVpTipQ50RO1qhXe0CmH-93" style="edgeStyle=orthogonalEdgeStyle;rounded=0;orthogonalLoop=1;jettySize=auto;html=1;entryX=1;entryY=0.5;entryDx=0;entryDy=0;entryPerimeter=0;" edge="1" parent="1" source="OVpTipQ50RO1qhXe0CmH-88" target="OVpTipQ50RO1qhXe0CmH-90">
          <mxGeometry relative="1" as="geometry">
            <Array as="points">
              <mxPoint x="805" y="1555" />
            </Array>
          </mxGeometry>
        </mxCell>
        <mxCell id="OVpTipQ50RO1qhXe0CmH-88" value="Append it in the middle of the two numbers" style="strokeWidth=2;html=1;shape=mxgraph.flowchart.stored_data;whiteSpace=wrap;" vertex="1" parent="1">
          <mxGeometry x="705" y="1062.5" width="210" height="127.5" as="geometry" />
        </mxCell>
        <mxCell id="OVpTipQ50RO1qhXe0CmH-95" value="" style="edgeStyle=orthogonalEdgeStyle;rounded=0;orthogonalLoop=1;jettySize=auto;html=1;" edge="1" parent="1" source="OVpTipQ50RO1qhXe0CmH-90" target="OVpTipQ50RO1qhXe0CmH-94">
          <mxGeometry relative="1" as="geometry" />
        </mxCell>
        <mxCell id="OVpTipQ50RO1qhXe0CmH-90" value="" style="verticalLabelPosition=bottom;verticalAlign=top;html=1;shape=mxgraph.flowchart.on-page_reference;" vertex="1" parent="1">
          <mxGeometry x="420" y="1540" width="30" height="30" as="geometry" />
        </mxCell>
        <mxCell id="OVpTipQ50RO1qhXe0CmH-97" value="" style="edgeStyle=orthogonalEdgeStyle;rounded=0;orthogonalLoop=1;jettySize=auto;html=1;" edge="1" parent="1" source="OVpTipQ50RO1qhXe0CmH-94" target="OVpTipQ50RO1qhXe0CmH-96">
          <mxGeometry relative="1" as="geometry" />
        </mxCell>
        <mxCell id="OVpTipQ50RO1qhXe0CmH-94" value="Output&amp;nbsp;&lt;br&gt;the list&lt;br&gt;of sorted &lt;br&gt;numbers" style="shape=parallelogram;perimeter=parallelogramPerimeter;whiteSpace=wrap;html=1;fixedSize=1;verticalAlign=top;" vertex="1" parent="1">
          <mxGeometry x="362.5" y="1640" width="145" height="75" as="geometry" />
        </mxCell>
        <mxCell id="OVpTipQ50RO1qhXe0CmH-96" value="&lt;br&gt;STOP" style="ellipse;whiteSpace=wrap;html=1;verticalAlign=top;" vertex="1" parent="1">
          <mxGeometry x="375" y="1802.5" width="120" height="60" as="geometry" />
        </mxCell>
        <mxCell id="OVpTipQ50RO1qhXe0CmH-98" value="&lt;b&gt;Flowchart of a program that sorts three numbers&lt;/b&gt;" style="text;html=1;strokeColor=none;fillColor=none;align=center;verticalAlign=middle;whiteSpace=wrap;rounded=0;" vertex="1" parent="1">
          <mxGeometry x="235" y="70" width="665" height="30" as="geometry" />
        </mxCell>
      </root>
    </mxGraphModel>
  </diagram>
</mxfile>
